<svg width="32" height="32" viewBox="0 0 32 32" fill="none" xmlns="http://www.w3.org/2000/svg">
<path fill-rule="evenodd" clip-rule="evenodd" d="M15.9909 2C16.2161 2 16.4348 2.07523 16.6123 2.21374L31 13.4281L29.7573 14.9999L28 13.6299V25.9999C27.999 26.5301 27.788 27.0382 27.4131 27.4131C27.0383 27.7879 26.5301 27.999 26 27.9999H6C5.4699 27.9989 4.96182 27.7878 4.58698 27.413C4.21215 27.0381 4.00108 26.53 4 25.9999V13.6208L2.2427 14.991L1 13.4193L15.3696 2.21374C15.5471 2.07523 15.7658 2 15.9909 2ZM16 4.27144L6 12.0614V25.9999H26V12.0719L16 4.27144Z" fill="black"/>
<path fill-rule="evenodd" clip-rule="evenodd" d="M12 26H14V18H18V26H20V18C19.9994 17.4698 19.7885 16.9614 19.4135 16.5865C19.0386 16.2115 18.5302 16.0006 18 16H14C13.4697 16.0005 12.9613 16.2114 12.5864 16.5864C12.2114 16.9613 12.0005 17.4697 12 18V26Z" fill="black"/>
</svg>
