<svg viewBox="0 0 24 24" xmlns="http://www.w3.org/2000/svg">
<path fill-rule="evenodd" clip-rule="evenodd" d="M15.9909 2.00011C16.2161 2.00011 16.4348 2.07534 16.6123 2.21385L31 13.4282L29.7573 15L28 13.63V26C27.999 26.5302 27.788 27.0383 27.4131 27.4132C27.0383 27.788 26.5301 27.9991 26 28H6C5.4699 27.999 4.96182 27.7879 4.58698 27.4131C4.21215 27.0382 4.00108 26.5301 4 26V13.6209L2.2427 14.9911L1 13.4194L15.3696 2.21385C15.5471 2.07534 15.7658 2.00011 15.9909 2.00011ZM16 4.27155L6 12.0615V26H26V12.072L16 4.27155Z" fill="white"/>
<path fill-rule="evenodd" clip-rule="evenodd" d="M12 26H14V18H18V26H20V18C19.9994 17.4698 19.7885 16.9614 19.4135 16.5865C19.0386 16.2115 18.5302 16.0006 18 16H14C13.4697 16.0005 12.9613 16.2114 12.5864 16.5864C12.2114 16.9613 12.0005 17.4697 12 18V26Z" fill="white"/>
</svg>
